<?xml version="1.0" encoding="UTF-8"?>
<svg version="1.1" xmlns="http://www.w3.org/2000/svg" width="1440" height="590">
<path d="M0 0 C3.64454091 1.45781636 6.09010135 2.56762573 9.21337891 4.69873047 C10.01256744 5.24044891 10.81175598 5.78216736 11.63516235 6.34030151 C12.4903244 6.92667389 13.34548645 7.51304626 14.2265625 8.1171875 C15.1288559 8.72958282 16.03114929 9.34197815 16.96078491 9.97293091 C19.85192805 11.93581466 22.73880083 13.90485535 25.625 15.875 C39.26497303 25.1743431 52.9810434 34.28113954 67 43 C68.02125977 43.6403418 69.04251953 44.28068359 70.09472656 44.94042969 C83.2587528 53.19347224 96.57224202 61.18408191 110 69 C110.67740234 69.39606445 111.35480469 69.79212891 112.05273438 70.20019531 C132.04817989 81.84853479 152.89443932 92.52074526 174 102 C174.7213916 102.32484375 175.4427832 102.6496875 176.18603516 102.984375 C216.60802224 121.00133851 260.04052401 133.77741792 304 139 C304.67562988 139.08613556 305.35125977 139.17227112 306.04736328 139.26101685 C321.60205059 141.21941081 337.08875722 141.35993429 352.75 141.3125 C354.06168152 141.31001251 355.37336304 141.30752502 356.72479248 141.30496216 C375.5604862 141.25738256 394.07549954 140.86804372 412.75793457 138.30401611 C415.26793568 137.96366887 417.77973261 137.63916569 420.29199219 137.31591797 C426.36529578 136.53079567 432.4330824 135.70788171 438.5 134.875 C439.41565735 134.7513205 440.3313147 134.62764099 441.27471924 134.50021362 C481.8695697 128.94680451 522.01695762 120.04078329 562.0625 111.5 C587.17820275 106.14672372 612.29722012 100.8542901 637.51953125 96.0234375 C638.48445055 95.83810959 639.44936985 95.65278168 640.44352913 95.46183777 C667.14568979 90.34633536 693.90222913 86.33838632 721 84 C722.08700195 83.90428711 723.17400391 83.80857422 724.29394531 83.70996094 C733.98856594 82.93070448 743.65443048 82.7571432 753.375 82.75 C754.62506836 82.74898788 754.62506836 82.74898788 755.90039062 82.74795532 C769.78395534 82.76571476 783.31843362 83.46711526 797 86 C797.90492188 86.16628906 798.80984375 86.33257812 799.7421875 86.50390625 C841.97695137 94.57995883 879.13847507 115.09325066 915 138 C916.88918034 139.20334887 918.77850053 140.4064782 920.66796875 141.609375 C921.58263916 142.19211182 922.49730957 142.77484863 923.43969727 143.37524414 C927.07818698 145.69217491 930.71908047 148.00531446 934.36035156 150.31787109 C936.0865227 151.41788211 937.80995598 152.52220435 939.53027344 153.63134766 C950.36607031 160.6154071 961.44168624 166.99032754 972.875 172.9375 C973.46934845 173.24887909 974.0636969 173.56025818 974.67605591 173.881073 C987.25968391 180.44874719 999.94198341 185.85110361 1013.75 189.25 C1015.15572266 189.61351562 1015.15572266 189.61351562 1016.58984375 189.984375 C1019.38580797 190.69397144 1022.18777683 191.35807408 1025 192 C1026.27012939 192.29801514 1026.27012939 192.29801514 1027.56591797 192.60205078 C1035.87367843 194.34916297 1044.1758886 194.39651204 1052.625 194.375 C1053.39223389 194.37478851 1054.15946777 194.37457703 1054.94995117 194.37435913 C1068.92570177 194.33610963 1082.32573489 193.00723475 1096 190 C1096.80115234 189.82871582 1097.60230469 189.65743164 1098.42773438 189.48095703 C1154.12980511 177.20622044 1207.40602195 147.87455884 1256 119 C1256.85754883 118.49259277 1257.71509766 117.98518555 1258.59863281 117.46240234 C1272.54351924 109.20591965 1286.28474362 100.63119312 1300 92 C1300.87108398 91.45279297 1301.74216797 90.90558594 1302.63964844 90.34179688 C1305.07329849 88.81283183 1307.5057223 87.28194091 1309.9375 85.75 C1310.6085376 85.32783203 1311.2795752 84.90566406 1311.97094727 84.47070312 C1314.31873611 82.98783044 1316.66030205 81.49561372 1319 80 C1319.56483093 79.63903229 1320.12966187 79.27806458 1320.71160889 78.90615845 C1333.02169288 71.02531083 1345.14708129 62.88184871 1357.25 54.6875 C1360.87958693 52.23215298 1364.50987194 49.77784105 1368.140625 47.32421875 C1369.48395149 46.41620766 1369.48395149 46.41620766 1370.85441589 45.48985291 C1378.08005001 40.61040289 1385.33192984 35.77108161 1392.59010315 30.94021606 C1399.41473298 26.39596191 1406.21660406 21.81947503 1412.99780273 17.21069336 C1414.72882568 16.03441812 1416.46104528 14.8599196 1418.19335938 13.68554688 C1424.21143135 9.60058268 1430.19225971 5.47703124 1436.08520508 1.21264648 C1438 0 1438 0 1440 0 C1440 194.7 1440 389.4 1440 590 C964.8 590 489.6 590 0 590 C0 395.3 0 200.6 0 0 Z " fill="#84D6D7" transform="translate(0,0)"/>
</svg>
